<svg width="180" height="160" viewBox="0 0 180 160" fill="none" xmlns="http://www.w3.org/2000/svg">
<mask id="mask0_1191_1816" style="mask-type:alpha" maskUnits="userSpaceOnUse" x="9" y="0" width="160" height="160">
<circle cx="88.7377" cy="79.7377" r="79.7377" fill="#D9D9D9"/>
</mask>
<g mask="url(#mask0_1191_1816)">
<path d="M138.883 145.569C138.471 145.83 138 146.091 137.588 146.353C137.118 146.614 136.706 146.876 136.235 147.085C135.824 147.294 135.471 147.503 135.059 147.712C135 147.765 134.941 147.765 134.882 147.817C133.53 148.549 132.118 149.229 130.706 149.856C130.294 150.065 129.824 150.274 129.412 150.431C129.412 150.431 129.353 150.484 129.294 150.484C128.824 150.693 128.353 150.902 127.882 151.111C126.941 151.529 125.941 151.895 125 152.261C124.53 152.471 124 152.627 123.53 152.784C123.059 152.941 122.53 153.15 122.059 153.307C121.588 153.464 121.059 153.673 120.588 153.83C120.588 153.83 120.588 153.83 120.53 153.83C120.059 153.987 119.53 154.144 119.059 154.301C118 154.614 116.882 154.928 115.824 155.242C115.471 155.346 115.059 155.451 114.706 155.556C113.588 155.869 112.471 156.131 111.353 156.34C110.941 156.444 110.53 156.497 110.059 156.601C109 156.81 107.883 157.02 106.824 157.229C106.588 157.281 106.412 157.281 106.177 157.333C105.824 157.386 105.412 157.438 105.059 157.49C104.53 157.542 104.059 157.647 103.53 157.699C103.294 157.752 103.059 157.752 102.824 157.804C102.53 157.856 102.177 157.908 101.824 157.908C100.883 158.013 99.8825 158.118 98.9413 158.222C98.6472 158.274 98.2943 158.274 98.0002 158.327H97.9413C97.5296 158.379 97.1178 158.379 96.706 158.431C96.2943 158.484 95.8825 158.484 95.4707 158.484C95.2355 158.484 94.9413 158.536 94.706 158.536C94.2355 158.536 93.8237 158.588 93.4119 158.588C92.8237 158.588 92.2943 158.64 91.706 158.64C91.1178 158.64 90.5884 158.64 90.0002 158.64C89.5884 158.64 89.1766 158.64 88.7649 158.64C63.9413 158.327 41.6472 148.967 25.706 134.118C25.706 134.118 25.706 134.065 25.6472 134.065C23.8825 132.654 25.4119 125.124 32.5296 120.366C41.4707 114.353 62.8825 110.588 62.8825 110.588C62.8825 110.588 71.1766 109.386 101.941 115.085C119.941 118.431 133.647 123.294 141.294 136.471C142.882 139.19 144.471 143.373 138.883 145.569Z" fill="white"/>
<path d="M102.118 114.51C113.412 116.549 125.471 118.745 134.765 125.386C137.882 127.634 139.941 130.928 141.647 134.118C142.471 135.686 143.294 137.307 143.941 139.033C144.294 140.183 144.824 141.49 144.53 142.85C144.471 143.216 144.118 143.686 143.824 143.948C142.471 145.15 141 145.882 139.53 146.824C130.882 152.157 120.941 155.922 110.647 157.909C87.706 162.353 62.8825 158.902 42.706 148.183C36.0001 144.575 29.8236 140.183 24.5295 135.007C23.9413 134.379 23.9413 133.333 23.9413 132.654C24.0001 131.085 24.4707 129.569 25.0589 128.157C26.4707 124.915 28.2942 121.673 31.4119 119.425C33.6472 118.065 36.0589 116.915 38.5295 115.974C46.2942 113.046 54.4707 111.007 62.8825 110.17C63.5883 110.118 63.706 111.007 63.0001 111.111C54.9413 112.575 46.9413 114.771 39.4707 117.752C36.7648 118.954 33.8825 120 31.706 121.882C29.6472 123.869 28.1766 126.327 27.0001 128.837C26.2354 130.353 25.706 132.758 25.9413 133.961C29.6472 137.882 34.0001 141.333 38.706 144.314C64.4707 160.314 103.588 161.359 131 148.026C133.471 146.824 135.882 145.464 138.177 144.052C139.294 143.373 140.471 142.797 141.353 142.013C141.412 141.961 141.353 142.013 141.353 142.065C141.353 142.118 141.294 142.17 141.294 142.17C141.353 141.542 141.118 140.706 140.824 139.869C139.765 136.837 138.059 133.647 136.235 130.876C133.353 126.745 128.471 124.131 123.53 122.039C120.118 120.627 116.53 119.529 112.882 118.484C109.235 117.438 105.53 116.549 101.824 115.765C100.882 115.556 101.177 114.353 102.118 114.51Z" fill="black"/>
<path d="M158.412 177.987H9.64746C9.64746 177.987 18.4122 161.569 22.2945 142.85C25.0004 129.883 27.0004 122.301 34.5886 118.118C39.9416 115.19 51.4122 112.157 56.3533 110.588C59.7063 109.543 60.4122 110.432 62.8239 109.856C62.8239 110.118 62.8828 110.327 62.8828 110.588C62.8828 110.588 69.2357 127.373 85.7651 133.334C99.2357 138.196 107.236 134.954 108.471 129.569C109.236 126.118 106.824 120.471 105.589 118.641C104.883 118.118 104.412 117.334 104.177 116.549L103.706 114.824C104.824 114.615 105.883 114.353 106.942 114.039C107.295 113.935 107.589 113.83 107.942 113.726C114.706 115.294 129.177 120.366 135.589 125.595C138.118 127.687 144.118 138.144 148 153.307C152.471 170.51 158.412 177.987 158.412 177.987Z" fill="black"/>
<path d="M159.765 178.614C115.471 178.876 53.2943 179.503 9.70604 179.346C8.64721 179.346 7.88251 178.301 8.35309 177.464C13.5884 167.216 17.706 156.288 20.3531 145.255C20.6472 143.843 21.2943 141.072 21.5884 139.66C22.9413 133.909 24.0002 128.209 27.4707 122.928C28.6472 121.203 30.1766 119.582 32.0002 118.275C33.7649 117.02 35.8237 116.078 37.8825 115.242C44.4707 112.732 51.1178 110.745 57.8825 108.915C59.4707 108.601 61.059 108.967 62.5884 108.654C63.4707 108.444 64.4119 109.02 64.4707 109.856L64.5296 110.588L62.9413 109.281C63.5884 109.281 64.1766 109.647 64.3531 110.17C64.8237 111.373 65.4707 112.627 66.1178 113.83C68.1178 117.438 70.5884 120.837 73.5884 123.817C77.5296 127.791 82.4707 130.928 88.1178 132.706C93.8237 134.588 104 136.209 106.824 130.144C107.294 129.046 107.235 127.895 107.059 126.693C106.647 124.235 105.706 121.621 104.353 119.425L104.647 119.739C103.706 118.641 103.353 117.333 103.471 116.078V114.98V114.824C103.471 114.719 103.588 114.614 103.706 114.614C104.412 114.405 105.059 114.144 105.765 113.935C106.412 113.673 107.059 113.412 107.706 113.098C107.883 112.994 108.059 113.046 108.235 113.098C112.118 113.987 115.824 115.19 119.53 116.549C125.059 118.588 130.53 120.889 135.294 124.183C137 125.281 138.235 126.902 139.235 128.523C141.235 131.66 142.824 134.902 144.235 138.196C146.706 143.948 148.53 149.909 150.118 155.922C152.118 162.562 154.53 169.15 158.235 175.216C158.647 175.843 159.059 176.471 159.471 177.098L159.588 177.203V177.255C159.941 177.516 160 178.248 159.765 178.614ZM157.059 177.36C156.765 177.621 156.824 178.353 157.059 178.614V178.562L156.941 178.405C152.824 172.392 150.235 165.647 148.118 158.902C147.059 155.608 146.294 152.052 145.235 148.706C143.177 142.118 140.647 135.477 136.941 129.464C136.294 128.471 135.588 127.373 134.706 126.588C133 125.177 131 124.026 129 122.928C125.706 121.203 122.177 119.686 118.588 118.379C115 117.072 111.353 115.869 107.647 114.98L108.53 114.928C106.941 115.033 105.412 115.085 103.883 115.033L104.118 114.719C104.471 115.242 104.883 116.131 105.235 116.601C105.647 117.072 106.118 117.438 106.647 117.647C106.765 117.752 106.883 117.856 106.941 117.961C109.059 121.569 111.177 126.954 109.647 130.98C106.118 138.876 94.2943 137.621 87.059 135.163C81.0002 133.333 75.5296 129.83 71.2943 125.543C67.059 121.255 63.706 116.34 61.4707 111.007L62.8825 111.895C62.059 111.895 61.4119 111.373 61.3531 110.641L61.2943 109.961L63.1766 111.163C62.5884 111.32 61.8825 111.373 61.2355 111.425C59.5884 111.373 58.4707 111.32 56.9413 111.843C54.9413 112.471 52.8825 113.098 50.8237 113.673C46.7649 114.876 42.7649 116.131 38.9413 117.647C30.2354 120.732 27.706 126.902 25.706 134.588C24.7649 138.144 24.0002 142.17 23.1766 145.778C20.4707 157.072 16.3531 168 11.0002 178.562L9.64721 176.627C52.2943 176.627 113.824 176.994 157.059 177.36Z" fill="black"/>
<path d="M80.7061 138.824C60.412 130.719 52.5297 116.235 54.0591 112.314C54.0591 112.314 54.0591 112.261 54.1179 112.209C55.1767 110.274 56.8826 108.706 59.0003 107.608C60.1767 106.98 61.4709 106.405 62.5297 106.091C78.5885 102.536 99.8826 108.549 107.059 114.039C109.647 116.81 112.294 119.582 113.294 126.902C114.706 137.464 101.706 147.242 80.7061 138.824Z" fill="white"/>
<path d="M80.412 139.399C70.2355 135.32 60.7061 128.941 55.2943 120.105C54.2355 118.275 53.2943 116.392 53.0002 114.248C52.9414 113.516 52.8826 112.627 53.2943 111.895C54.5296 109.699 56.7649 107.974 59.2355 106.928C61.1179 106.039 63.1767 105.412 65.2355 104.837C68.1767 104.366 71.1179 104.209 74.1179 104.261C83.9414 104.523 93.7061 106.824 102.412 110.85C103.059 111.163 103.706 111.477 104.353 111.843C104.588 111.948 104.765 112.105 105.059 112.052C105.353 112 105.588 112.105 105.824 112.209C106.53 112.575 107.118 113.046 107.765 113.569C109.353 115.294 110.941 117.124 112 119.216C113.059 121.307 113.647 123.556 114 125.752C114.941 130.248 113.236 135.268 109.294 138.353C101.294 144.732 89.2943 143.007 80.412 139.399ZM80.9414 138.301C87.5296 140.863 95.059 142.484 102.059 140.497C107.706 138.98 112.353 134.431 112.53 129.098C112.588 125.961 111.765 122.667 110.353 119.791C109.588 118.013 107.471 115.765 106.412 114.614C105.765 114.144 105.059 113.778 104.471 113.307C104.412 113.203 104.353 113.098 104.294 112.993C104.177 112.732 103.941 112.68 103.765 112.523C103.177 112.209 102.53 111.895 101.883 111.582C96.7649 109.229 91.1179 107.869 85.4708 106.876C78.8826 105.778 72.1179 105.464 65.4708 106.301C64.5296 106.405 63.5296 106.301 62.5884 106.51C61.8826 106.771 60.5884 107.294 59.7649 107.817C57.6473 108.915 56.059 110.536 54.9414 112.471L54.8826 112.523C54.8826 112.575 54.8237 112.68 54.8237 112.732C54.5296 114.928 55.7061 117.176 56.8237 119.216C57.8237 120.889 59.0002 122.51 60.3532 124.078C65.7649 130.301 73.0002 135.111 80.9414 138.301Z" fill="black"/>
<path d="M107.647 128.418C106.411 133.804 98.4114 137.046 84.9408 132.183C70.9408 127.163 64.882 115.19 63.3525 111.634C71.6467 97.8301 65.882 88.2614 65.882 88.2614C84.9996 86.7974 101.705 106.667 101.705 106.667L104.294 116.497C104.529 117.333 105 118.065 105.705 118.588C106.941 120.523 108.411 124.967 107.647 128.418Z" fill="white"/>
<path d="M63.0587 111.791C64.1764 110.275 64.8822 108.497 65.3528 106.771C66.2352 103.163 66.5293 99.5033 66.5881 95.8432V94.4837C66.4117 93.1242 65.8822 91.7124 65.294 90.4575C64.5293 88.7843 67.294 87.7386 68.1764 89.4118C68.294 89.6209 68.294 89.987 68.294 90.1961C68.4705 97.3072 68.8234 106.458 63.7646 112.366C63.4117 112.68 62.7058 112.209 63.0587 111.791Z" fill="black"/>
<path d="M102.353 106.562C103.235 107.033 103.529 107.66 103.647 108.288C104 109.543 103.882 110.902 104.235 112.209C104.529 113.464 105.412 114.667 105.647 115.974C105.941 117.333 106.823 120.209 107.176 121.621C107.294 121.935 107.059 122.301 106.647 122.353C106.412 122.405 106.235 122.353 106.059 122.248C105.294 121.673 104.941 121.098 104.47 120.366C103.706 119.111 103.176 117.961 102.706 116.549C102.294 115.294 102.47 113.935 102.117 112.628C101.823 111.373 101 110.17 100.706 108.863C100.529 108.235 100.47 107.556 101 106.771C101.353 106.458 101.941 106.353 102.353 106.562Z" fill="black"/>
<path d="M106.588 120.366C95.3529 119.843 86.1764 116.706 77.2352 102.536C84.7646 108.445 93.647 110.693 103 111.739L104.235 116.549C104.471 117.386 105.882 119.843 106.588 120.366Z" fill="black"/>
<path d="M106.118 118.431C108.118 121.778 109.294 125.961 108.059 129.673C107.118 132.288 104.412 134.222 101.471 134.954C94.6472 136.575 86.7649 134.013 80.706 131.137C73.2354 127.425 67.706 121.203 64.1766 114.405C63.9413 113.882 64.7649 113.464 65.1178 113.987C66.3531 116.183 67.7649 118.327 69.3531 120.262C70.9413 122.248 72.7649 124.078 74.8237 125.699C80.8237 130.51 88.9413 133.49 97.059 133.49C105.412 133.281 108.588 129.36 106.647 122.144C106.353 120.994 105.883 119.791 105.235 118.797C104.883 118.379 105.765 117.909 106.118 118.431Z" fill="black"/>
<path d="M128.882 55.6339C129.941 60.0261 130.471 63.5816 127.588 75.294C124.765 86.9542 130.235 98.7189 116.353 109.438C107 116.654 90.6471 118.013 77.5882 110.118C73.1765 107.451 72 95.0065 68.5294 90.2483C67.0588 88.2614 66.1765 91.4509 62.8235 88.1568C58.1765 83.6601 52.5882 74.6143 55.3529 58.6143C59.8235 32.6797 82.9412 29.647 100.059 32.5228C117.235 35.3986 126.059 44.0784 128.882 55.6339Z" fill="white"/>
<path d="M65.7058 92.7581C64.3528 90.7712 62.647 89.0457 61.0587 87.2157C58.7058 84.3921 56.9411 81.1503 55.7646 77.8039C50.7058 63.4771 53.4117 44.8104 68.3528 35.8692C82.1764 27.5555 108.588 30.0653 120.706 40.1045C126.765 44.9673 130.118 52.0261 130.823 59.1372C131.176 63.8954 129.882 68.4967 128.765 73.098C127.47 77.5947 127.176 82.0915 127.176 86.7451C127.118 91.3987 126.882 96.2614 124.882 100.654C121.823 107.346 115.412 112.784 107.706 115.085C97.5881 118.222 85.647 116.444 77.3528 110.431C76.9999 110.17 77.3528 109.752 77.7646 109.908C88.6469 115.399 102.941 116.34 113.529 110.013C119.823 106.248 124.176 100.288 125.176 93.5947C126 89.0457 125.765 84.4444 126.235 79.8431C126.412 77.8039 127.059 74.9804 127.529 72.9411C128.235 69.5424 128.706 66.1438 128.647 62.7451C128.588 59.3987 127.765 56.1045 126.647 52.915C122.765 41.5686 111.647 34.8758 98.8234 33.0457C79.647 30.0653 62.8822 36.3921 57.8822 54.1176C55.7058 62.7974 53.9999 72.366 58.1175 80.7843C59.5881 83.9738 61.9999 86.6928 64.7646 89.0457L67.4705 91.6078C68.6469 92.6536 66.6469 94.013 65.7058 92.7581Z" fill="black"/>
<path d="M72.6467 76.1306C72.6467 76.1306 70.8232 68.2875 62.2349 69.2287C54.8232 70.0653 52.2349 85.8561 69.0584 90.2483" fill="white"/>
<path d="M68.2939 83.3986C66.941 82.7188 65.9998 81.5685 65.941 80.1567C65.9998 79.111 66.1763 77.9084 65.8821 76.8626C65.7057 75.8692 64.5292 75.6077 63.6468 75.66C62.7057 75.8169 62.1174 76.8626 61.941 77.6992C61.941 77.7515 61.8821 77.9084 61.8821 77.9607C61.8233 78.2221 61.3527 78.2221 61.2351 77.9607C60.4704 75.9215 62.1763 73.6731 64.6468 73.9345C68.1174 74.1437 68.588 77.3855 67.941 79.843C67.588 80.8888 68.0586 81.8299 68.7057 82.7188L68.8233 82.8757C69.1174 83.1894 68.6468 83.6077 68.2939 83.3986Z" fill="black"/>
<path d="M115.353 70.5882C116.235 74.3006 117.882 77.7516 119.941 80.9934C121.764 84.9672 117.058 88.732 112.882 88.5751C112.411 88.5751 112.353 87.9999 112.764 87.8954C115.411 87.1633 117.823 85.5947 118.235 83.1895C118.411 82.4575 118.176 81.83 117.764 81.2025C115.823 77.9607 114.647 74.2483 114.941 70.5882C114.941 70.3267 115.353 70.3267 115.353 70.5882Z" fill="black"/>
<path d="M72.3529 76.183C70.9999 73.098 68.0588 70.1699 64.1176 70.2222C63.7646 70.1699 63.1764 70.2745 62.8235 70.2745C61.8235 70.3268 60.9999 70.6405 60.2352 71.268C56.4705 74.6144 57.1176 80.5229 60.1764 84.2353C61.2352 85.5425 62.5882 86.6928 64.1176 87.634C65.647 88.5752 67.3529 89.3072 69.1764 89.9346C69.5882 90.0392 69.4117 90.6144 68.9999 90.5621C65.0588 89.8301 61.2941 88.1046 58.7058 85.2287C54.7058 80.9412 53.8823 73.7778 58.647 69.5948C59.7058 68.7582 61.1764 68.1307 62.647 68.1307C63.1176 68.1307 63.8235 68.0261 64.2941 68.1307C66.7646 68.2353 69.1176 69.3333 70.647 71.0588C71.9999 72.5229 72.7646 74.3006 72.9999 76.0784C72.9999 76.3921 72.4705 76.4967 72.3529 76.183Z" fill="black"/>
<path d="M110.882 93.8039C107.118 96.9935 100 94.4314 98.1177 90.5621C97.8824 90.0915 98.4706 89.6732 98.9412 89.8823C99.9412 90.3529 100.824 90.8235 101.765 91.1895C104.471 92.2876 107.294 93.1765 110.294 92.915C110.882 92.8104 111.294 93.4379 110.882 93.8039Z" fill="black"/>
<path d="M93.4119 76.3217C92.0002 76.2694 90.9413 75.2237 91.059 73.9688L91.1178 72.5047C91.1766 71.2498 92.3531 70.3086 93.7649 70.4132C95.1766 70.4655 96.2354 71.5112 96.1178 72.7662L96.059 74.2302C96.0002 75.4328 94.8237 76.374 93.4119 76.3217Z" fill="black"/>
<path d="M118.176 77.1061C116.882 77.0538 115.882 76.0603 115.941 74.91L116 73.5505C116.059 72.4002 117.176 71.5113 118.471 71.5636C119.765 71.6159 120.765 72.6093 120.706 73.7597L120.647 75.1191C120.588 76.2695 119.471 77.1584 118.176 77.1061Z" fill="black"/>
<path d="M98.7061 73.4981C96.7649 72.3478 94.6472 71.5635 92.2943 71.9818C91.5296 72.0864 90.7649 72.2955 90.2943 72.7661C90.1178 72.9753 89.7061 72.923 89.7061 72.6092C89.7649 71.5635 90.7649 70.8838 91.7061 70.4655C93.5296 69.6289 96.059 69.7857 97.7061 70.8838C98.2943 71.1975 100.294 73.1321 99.2355 73.5504C99.0002 73.655 98.8825 73.6027 98.7061 73.4981Z" fill="black"/>
<path d="M115.53 73.7595C115.53 71.5635 118.588 70.7791 120.471 71.5635C121.53 71.9818 122.294 72.8184 122.588 73.8118C122.706 74.1255 122.177 74.387 121.941 74.1255C120.941 73.0798 119.235 72.5569 117.882 73.1844C117.471 73.3935 117.412 73.5504 117.294 73.7595C117.294 74.8053 115.588 74.753 115.53 73.7595Z" fill="black"/>
<path d="M101.53 64.8707C102.765 65.2367 104 64.2432 103.765 63.0406C103.647 62.4132 103.353 61.7857 102.765 61.3151C101 59.9034 93.706 58.6485 89.2943 60.4785C85.4119 62.1517 95.8825 63.1975 101.53 64.8707Z" fill="black"/>
<path d="M119.118 65.7073C118.118 66.021 117.059 65.0798 117.236 63.9818C117.294 63.4066 117.53 62.8315 118 62.4132C119.412 61.1583 124.236 60.1648 127.294 62.0995C129.941 63.7204 123.706 64.191 119.118 65.7073Z" fill="black"/>
<path d="M127.743 41.2076C128.737 39.1506 128.737 36.8977 127.08 34.9387C122.273 29.3064 107.413 33.5673 99.1258 31.2165C86.6956 27.6412 71.2823 27.2004 62.2221 40.424C59.957 43.7543 58.8521 44.6849 55.6479 47.3296C52.3332 50.0723 49.7367 55.1168 49.5157 62.0224C49.0185 75.8826 61.2829 87.9307 61.2829 87.9307C61.8906 88.6654 62.443 89.3021 62.9403 89.8408C67.3599 94.5425 68.741 103.603 67.4151 89.3021C53.6591 84.6004 56.1451 70.9361 62.8298 70.2014C69.9011 69.4178 72.1109 75.0011 72.4977 76.3724C77.2487 73.6787 75.5361 67.9485 74.9837 62.6101C78.6851 61.1408 81.8341 57.6146 83.4914 54.4311C85.3145 56.684 87.5243 58.4472 90.1761 58.6431C92.9936 58.8879 94.6509 56.782 95.2034 53.7944C98.8496 58.0554 105.313 63.3448 115.478 64.3733C120.34 64.863 124.373 63.0509 127.08 60.0634C127.798 60.1613 128.461 60.2103 129.124 60.1613C136.25 59.5246 144.206 46.7419 127.743 41.2076Z" fill="#58422D"/>
<path d="M159.693 44.0784C191.431 105.203 135.641 174.17 69.1308 157.333C39.2746 149.908 15.2746 124.026 10.3072 93.647C4.66019 63.4248 18.3072 30.9542 43.8236 13.8561C78.804 -10.1961 127.275 -2.19614 152.32 32.2091C152.477 32.366 152.425 32.6274 152.216 32.7843C152.059 32.9411 151.797 32.8888 151.641 32.6797C148.19 28.2352 144.268 24.2091 139.98 20.6012C132.922 14.5882 124.66 9.88229 115.928 6.69275C71.4837 -9.41183 22.6994 17.3594 12.9739 63.8431C1.99352 115.922 46.2811 163.869 99.0916 156.706C139.824 151.582 170.098 113.987 166.752 73.098C166.02 63.2156 163.405 53.4379 159.065 44.4444C158.961 44.2875 159.065 44.0784 159.222 43.9738C159.379 43.8692 159.588 43.9215 159.693 44.0784Z" fill="white"/>
</g>
</svg>
