<svg width="216" height="25" viewBox="0 0 216 25" fill="none" xmlns="http://www.w3.org/2000/svg">
<g clip-path="url(#clip0_512_1663)">
<path d="M0.264038 0.462242H23.736V23.9344H0.264038V0.462242Z" fill="#9955E8"/>
<path d="M21.815 18.3362C21.6431 17.2654 20.9449 16.366 18.8765 15.5273C18.158 15.1971 17.357 14.9607 17.1184 14.4162C17.0336 14.0993 17.0224 13.9208 17.076 13.729C17.2299 13.1065 17.973 12.9124 18.5619 13.0909C18.9412 13.2181 19.3003 13.5104 19.5169 13.9767C20.5297 13.3208 20.5277 13.3251 21.2349 12.8744C20.976 12.4729 20.8378 12.2877 20.6683 12.1159C20.0591 11.4355 19.229 11.0851 17.9015 11.1119L17.21 11.2013C16.5474 11.3687 15.9159 11.7166 15.5456 12.1829C14.4345 13.4436 14.7514 15.6501 16.1034 16.5582C17.4354 17.5579 19.3922 17.7854 19.6421 18.7202C19.8853 19.8647 18.801 20.2352 17.7232 20.1036C16.929 19.9384 16.4872 19.5347 16.0097 18.8007C15.1307 19.3094 15.1307 19.3094 14.2269 19.8291C14.4412 20.2977 14.6664 20.5097 15.0257 20.9157C16.7259 22.6403 20.9807 22.5556 21.7438 19.9452C21.7747 19.8556 21.9802 19.2578 21.815 18.3362ZM13.0241 11.2501H10.8287L10.8197 16.9261C10.8197 18.1332 10.8821 19.2398 10.6858 19.579C10.3646 20.2461 9.53229 20.1634 9.15298 20.0341C8.76692 19.8443 8.57061 19.5745 8.34317 19.1931C8.28073 19.0836 8.23386 18.9989 8.21811 18.9923L6.43311 20.0854C6.72992 20.6946 7.16717 21.2234 7.72723 21.5669C8.56386 22.069 9.68829 22.2229 10.8643 21.9529C11.6297 21.73 12.29 21.2682 12.6358 20.5652C13.1357 19.6437 13.0284 18.5282 13.0239 17.2945C13.0352 15.2817 13.0241 13.2692 13.0241 11.2501Z" fill="#2C243B"/>
</g>
<g clip-path="url(#clip1_512_1663)">
<path d="M59.9999 14.1375C61.1804 14.1375 62.1374 13.1805 62.1374 12C62.1374 10.8195 61.1804 9.8625 59.9999 9.8625C58.8194 9.8625 57.8624 10.8195 57.8624 12C57.8624 13.1805 58.8194 14.1375 59.9999 14.1375Z" fill="#9955E8"/>
<path d="M68.1187 8.475C67.7062 8.325 67.275 8.175 66.8249 8.04375C66.9375 7.59375 67.0312 7.14375 67.1062 6.7125C67.5 4.2375 67.0687 2.49375 65.8687 1.81875C65.5124 1.6125 65.1187 1.51875 64.6687 1.51875C63.3562 1.51875 61.6874 2.49375 60 4.125C58.3125 2.49375 56.6437 1.51875 55.3312 1.51875C54.8812 1.51875 54.4875 1.6125 54.1312 1.81875C52.9312 2.5125 52.5 4.25625 52.8937 6.7125C52.9687 7.14375 53.0625 7.59375 53.175 8.04375C52.725 8.175 52.2937 8.30625 51.8812 8.475C49.5375 9.375 48.2625 10.6125 48.2625 12C48.2625 13.3875 49.5562 14.625 51.8812 15.525C52.2937 15.675 52.725 15.825 53.175 15.9563C53.0625 16.4063 52.9687 16.8563 52.8937 17.2875C52.5 19.7625 52.9312 21.5063 54.1312 22.1813C54.4875 22.3875 54.8812 22.4813 55.3312 22.4813C56.6624 22.4813 58.3312 21.5063 60 19.875C61.6874 21.5063 63.3562 22.4813 64.6687 22.4813C65.1187 22.4813 65.5124 22.3875 65.8687 22.1813C67.0687 21.4875 67.5 19.7438 67.1062 17.2875C67.0312 16.8563 66.9375 16.4063 66.8249 15.9563C67.275 15.825 67.7062 15.6938 68.1187 15.525C70.4625 14.625 71.7374 13.3875 71.7374 12C71.7374 10.6125 70.4625 9.375 68.1187 8.475ZM65.3437 2.75625C66.1124 3.20625 66.375 4.59375 66.0562 6.5625C66 6.95625 65.9062 7.36875 65.7937 7.8C64.8187 7.575 63.7874 7.425 62.7 7.33125C62.0625 6.43125 61.4062 5.625 60.7499 4.89375C62.1375 3.525 63.5437 2.5875 64.6875 2.5875C64.9312 2.5875 65.1562 2.64375 65.3437 2.75625ZM63.2437 13.875C62.9062 14.475 62.5124 15.075 62.0999 15.675C61.4062 15.7313 60.7125 15.75 60 15.75C59.2687 15.75 58.575 15.7313 57.9 15.675C57.4874 15.075 57.1124 14.475 56.775 13.875C56.4187 13.2563 56.0812 12.6188 55.7812 12C56.0812 11.3813 56.4187 10.7438 56.775 10.125C57.1124 9.525 57.5062 8.925 57.9187 8.325C58.6125 8.26875 59.3062 8.25 60.0187 8.25C60.7499 8.25 61.4437 8.26875 62.1187 8.325C62.5312 8.925 62.9062 9.525 63.2437 10.125C63.5999 10.7438 63.9374 11.3813 64.2374 12C63.9187 12.6188 63.5999 13.2375 63.2437 13.875ZM64.7999 13.2563C65.0812 13.9125 65.3062 14.55 65.5124 15.1875C64.875 15.3375 64.1999 15.45 63.4874 15.5438C63.7124 15.1875 63.9562 14.8125 64.1624 14.4188C64.3874 14.025 64.5937 13.6313 64.7999 13.2563ZM60 18.3375C59.5499 17.85 59.1187 17.325 58.7062 16.7813C59.1374 16.8 59.5687 16.8188 60 16.8188C60.4312 16.8188 60.8625 16.8 61.2937 16.7813C60.8812 17.325 60.45 17.85 60 18.3375ZM56.5125 15.525C55.8 15.4313 55.1249 15.3188 54.4875 15.1688C54.6937 14.55 54.9187 13.8938 55.2 13.2375C55.4062 13.6125 55.6125 14.0063 55.8375 14.3813C56.0624 14.7938 56.2875 15.15 56.5125 15.525ZM55.2 10.7438C54.9187 10.0875 54.6937 9.45 54.4875 8.8125C55.1249 8.6625 55.8 8.55 56.5125 8.45625C56.2875 8.8125 56.0437 9.1875 55.8375 9.58125C55.6125 9.975 55.4062 10.3688 55.2 10.7438ZM60 5.6625C60.45 6.15 60.8812 6.675 61.2937 7.21875C60.8625 7.2 60.4312 7.18125 60 7.18125C59.5687 7.18125 59.1374 7.2 58.7062 7.21875C59.1187 6.675 59.5499 6.15 60 5.6625ZM64.1624 9.6L63.4874 8.475C64.1999 8.56875 64.875 8.68125 65.5124 8.83125C65.3062 9.45 65.0812 10.1063 64.7999 10.7625C64.5937 10.3688 64.3874 9.975 64.1624 9.6ZM53.9437 6.5625C53.625 4.59375 53.8875 3.20625 54.6562 2.75625C54.8437 2.64375 55.0687 2.5875 55.3125 2.5875C56.4375 2.5875 57.8437 3.50625 59.25 4.89375C58.5937 5.60625 57.9374 6.43125 57.2999 7.33125C56.2125 7.425 55.1812 7.59375 54.2062 7.8C54.0937 7.36875 54.0187 6.95625 53.9437 6.5625ZM49.3125 12C49.3125 11.1188 50.3812 10.1813 52.2562 9.4875C52.6312 9.3375 53.0437 9.20625 53.4562 9.09375C53.7562 10.0313 54.1312 11.025 54.5812 12.0188C54.1312 13.0125 53.7375 13.9875 53.4562 14.925C50.8687 14.175 49.3125 13.05 49.3125 12ZM54.6562 21.2438C53.8875 20.7938 53.625 19.4063 53.9437 17.4375C54 17.0438 54.0937 16.6313 54.2062 16.2C55.1812 16.425 56.2125 16.575 57.2999 16.6688C57.9374 17.5688 58.5937 18.375 59.25 19.1063C57.8624 20.475 56.4562 21.4125 55.3125 21.4125C55.0687 21.4125 54.8437 21.3563 54.6562 21.2438ZM66.0562 17.4375C66.375 19.4063 66.1124 20.7938 65.3437 21.2438C65.1562 21.3563 64.9312 21.4125 64.6875 21.4125C63.5624 21.4125 62.1562 20.4938 60.7499 19.1063C61.4062 18.3938 62.0625 17.5688 62.7 16.6688C63.7874 16.575 64.8187 16.4063 65.7937 16.2C65.9062 16.6313 65.9812 17.0438 66.0562 17.4375ZM67.7437 14.5125C67.3687 14.6625 66.9562 14.7938 66.5437 14.9063C66.2437 13.9688 65.8687 12.975 65.4187 11.9813C65.8687 10.9875 66.2624 10.0125 66.5437 9.075C69.1312 9.825 70.6874 10.95 70.6874 12C70.6874 12.8813 69.5999 13.8188 67.7437 14.5125Z" fill="#9955E8"/>
</g>
<path d="M117.145 5.68763L108.876 0.88669C108.355 0.58969 107.676 0.58969 107.15 0.88669L98.7939 5.68763C98.2558 5.99719 97.875 6.579 97.875 7.20132V16.7904C97.875 17.4128 98.2658 17.9948 98.8039 18.306L101.012 19.56C102.067 20.0798 102.44 20.0798 102.92 20.0798C104.483 20.0798 105.375 19.1349 105.375 17.487V8.02013C105.375 7.88644 105.305 7.6875 105.174 7.6875H104.12C103.986 7.6875 103.688 7.88644 103.688 8.01994V17.4868C103.688 18.2173 103.027 18.9443 101.792 18.3268L99.5106 17.0119C99.4311 16.9688 99.375 16.8819 99.375 16.7904V7.20132C99.375 7.11094 99.4791 7.02019 99.5591 6.97388L107.889 2.18119C107.966 2.13713 108.081 2.13713 108.158 2.18119L116.386 6.97275C116.465 7.02019 116.437 7.10813 116.437 7.20132V16.7904C116.437 16.8819 116.472 16.971 116.394 17.0151L108.128 21.8106C108.057 21.8531 107.969 21.8531 107.891 21.8106L105.771 20.5451C105.707 20.508 105.631 20.4947 105.57 20.529C104.98 20.8633 104.871 20.9078 104.318 21.0996C104.182 21.147 103.981 21.2293 104.395 21.4613L107.17 23.1026C107.434 23.2556 107.735 23.3362 108.041 23.3363C108.349 23.3363 108.65 23.2564 108.916 23.1026L117.144 18.306C117.682 17.9925 117.938 17.4128 117.938 16.7904V7.20132C117.938 6.579 117.683 5.99869 117.145 5.68763ZM110.608 15.2709C108.41 15.2709 107.925 14.6644 107.764 13.5711C107.745 13.4533 107.645 13.3125 107.525 13.3125H106.451C106.318 13.3125 106.211 13.4738 106.211 13.6061C106.211 15.006 106.972 16.7021 110.608 16.7021C113.241 16.7021 114.75 15.6793 114.75 13.8692C114.75 12.0744 113.537 11.6034 110.984 11.2656C108.404 10.9245 108.142 10.7522 108.142 10.1477C108.142 9.64931 108.364 8.98463 110.275 8.98463C111.982 8.98463 112.611 9.351 112.87 10.5017C112.892 10.6099 112.991 10.6875 113.102 10.6875H114.181C114.248 10.6875 114.311 10.6607 114.358 10.6133C114.403 10.5623 114.426 10.4983 114.42 10.4297C114.253 8.44819 112.937 7.52475 110.274 7.52475C107.906 7.52475 106.493 8.52488 106.493 10.2013C106.493 12.0197 107.899 12.5222 110.172 12.747C112.892 13.0136 113.104 13.4111 113.104 13.9461C113.104 14.8751 112.358 15.2709 110.608 15.2709Z" fill="#9955E8"/>
<g clip-path="url(#clip2_512_1663)">
<path d="M156.001 4.80038C152.801 4.80038 150.801 6.39975 150.001 9.59981C151.2 8.00025 152.601 7.40044 154.2 7.80038C155.114 8.028 155.766 8.69025 156.489 9.42413C157.666 10.6179 159.027 12 162.001 12C165.201 12 167.2 10.4004 168.001 7.19963C166.801 8.80013 165.401 9.39994 163.801 9C162.888 8.77219 162.236 8.11013 161.512 7.37625C160.336 6.18244 158.975 4.80038 156.001 4.80038ZM150.001 12C146.801 12 144.801 13.5996 144.001 16.8004C145.2 15.1999 146.601 14.6001 148.2 15C149.114 15.2278 149.766 15.8899 150.489 16.6238C151.666 17.8176 153.027 19.1996 156.001 19.1996C159.201 19.1996 161.2 17.6003 162.001 14.4002C160.801 15.9998 159.401 16.5996 157.801 16.1996C156.888 15.972 156.236 15.3098 155.512 14.5759C154.336 13.3821 152.975 12 150.001 12Z" fill="#9955E8"/>
</g>
<g clip-path="url(#clip3_512_1663)">
<g clip-path="url(#clip4_512_1663)">
<path d="M201.249 11.625H206.717C208.239 11.625 209.438 10.3373 209.438 8.80894V3.59681C209.438 2.11331 208.194 0.998814 206.708 0.751314C205.768 0.594752 204.797 0.523502 203.861 0.528002C202.925 0.532314 202.059 0.612002 201.272 0.751314C198.956 1.16025 198.563 2.01713 198.563 3.59681V5.625H204V6.375H196.458C194.867 6.375 193.474 7.33275 193.039 9.15206C192.536 11.2371 192.514 12.5119 193.039 14.6889C193.428 16.3093 194.357 17.4375 195.948 17.4375H197.813V14.991C197.813 13.1841 199.393 11.625 201.249 11.625ZM200.905 4.29188C200.337 4.29188 199.878 3.82706 199.878 3.25219C199.878 2.67488 200.337 2.20575 200.905 2.20575C201.47 2.20575 201.932 2.67488 201.932 3.25219C201.932 3.82706 201.47 4.29188 200.905 4.29188ZM214.928 9.15206C214.534 7.56806 213.783 6.375 212.19 6.375H210.188V8.80894C210.188 10.6933 208.539 12.1875 206.717 12.1875H201.249C199.752 12.1875 198.563 13.5611 198.563 15.0611V20.2736C198.563 21.7568 199.827 22.6294 201.274 23.055C203.007 23.5644 204.648 23.6565 206.721 23.055C208.099 22.6558 209.438 21.8529 209.438 20.2736V18.1875H204V17.4375H212.19C213.781 17.4375 214.374 16.3545 214.928 14.6888C215.499 12.9741 215.474 11.3514 214.928 9.15206ZM207.061 19.5782C207.629 19.5782 208.088 20.043 208.088 20.6183C208.088 21.195 207.629 21.6643 207.061 21.6643C206.496 21.6643 206.034 21.1952 206.034 20.6183C206.034 20.043 206.496 19.5782 207.061 19.5782Z" fill="#9955E8"/>
</g>
</g>
<defs>
<clipPath id="clip0_512_1663">
<rect width="24" height="24" fill="white" transform="translate(0 0.198242)"/>
</clipPath>
<clipPath id="clip1_512_1663">
<rect x="48" width="24" height="24" rx="12" fill="white"/>
</clipPath>
<clipPath id="clip2_512_1663">
<rect width="24" height="24" fill="white" transform="translate(144)"/>
</clipPath>
<clipPath id="clip3_512_1663">
<rect x="192" width="24" height="24" rx="12" fill="white"/>
</clipPath>
<clipPath id="clip4_512_1663">
<rect width="24" height="24" fill="white" transform="translate(192)"/>
</clipPath>
</defs>
</svg>
